<?xml version="1.0" standalone="no"?>
<!DOCTYPE svg PUBLIC "-//W3C//DTD SVG 20010904//EN"
 "http://www.w3.org/TR/2001/REC-SVG-20010904/DTD/svg10.dtd">
<svg version="1.0" xmlns="http://www.w3.org/2000/svg"
 width="500.000000pt" height="500.000000pt" viewBox="0 0 500.000000 500.000000"
 preserveAspectRatio="xMidYMid meet">

<g transform="translate(0.000000,500.000000) scale(0.100000,-0.100000)"
fill="#000000" stroke="none">
<path d="M3300 3734 c0 -6 14 -30 31 -54 39 -54 79 -138 79 -167 0 -12 5 -25
10 -28 6 -4 7 -11 4 -17 -4 -6 -8 -29 -10 -52 -2 -30 0 -36 6 -21 9 20 9 20 9
0 1 -12 5 -25 10 -30 5 -6 3 -23 -5 -40 -7 -16 -14 -23 -15 -15 0 8 -5 -1 -9
-20 -8 -31 9 -90 26 -90 2 0 -2 14 -11 30 -9 17 -13 30 -9 30 13 0 33 -35 34
-57 0 -12 5 -25 10 -28 6 -3 10 -21 10 -38 0 -18 9 -47 20 -64 l19 -33 -30
-48 c-16 -27 -41 -75 -55 -108 -24 -56 -25 -57 -20 -19 20 140 20 145 -2 145
-24 0 -52 -25 -52 -46 0 -47 -84 -154 -120 -154 -20 0 -22 4 -17 38 4 20 18
66 32 101 14 36 25 71 25 78 0 16 -42 17 -57 2 -8 -8 -16 -7 -30 2 -50 31
-127 -30 -162 -127 -26 -71 -78 -141 -94 -125 -6 6 -5 44 3 110 11 88 16 106
42 139 76 94 121 248 83 286 -20 19 -51 16 -91 -10 -49 -32 -103 -193 -104
-306 0 -58 -32 -144 -72 -193 -45 -54 -53 -36 -38 84 11 88 16 106 42 139 76
94 121 248 83 286 -20 19 -51 16 -91 -10 -48 -32 -103 -192 -104 -304 -1 -75
-70 -200 -111 -200 -25 0 -25 25 1 119 24 84 21 101 -13 101 -30 0 -45 -18
-72 -83 -19 -48 -57 -83 -76 -71 -4 2 -1 24 7 48 9 25 14 59 12 78 -2 27 -8
34 -30 36 -55 6 -75 -70 -37 -138 l21 -38 -28 -53 c-50 -91 -57 -81 -53 76 4
123 2 139 -14 149 -26 17 -50 -4 -69 -62 -14 -45 -15 -58 -2 -122 17 -91 35
-120 74 -120 32 0 55 24 84 89 12 25 26 41 36 41 10 0 29 9 43 20 l26 21 11
-40 c26 -98 98 -94 158 8 l27 46 6 -46 c9 -58 23 -86 49 -94 31 -10 62 16 98
81 30 57 31 58 32 26 0 -46 24 -99 49 -107 30 -9 57 10 88 62 16 28 29 41 31
32 7 -23 34 -49 51 -49 8 0 27 11 42 26 l26 25 13 -31 c25 -59 98 -48 150 23
l30 41 0 -68 c0 -67 0 -67 27 -64 23 3 30 14 62 93 42 105 77 165 96 165 23 0
25 -15 10 -86 -34 -165 50 -198 152 -59 l22 30 1 -25 c0 -34 27 -70 51 -70 11
0 33 15 50 32 l29 32 0 -25 c0 -33 29 -59 64 -59 20 0 41 15 81 57 30 31 53
59 50 61 -2 3 0 13 6 24 9 16 6 25 -17 49 -15 16 -36 31 -46 35 -14 4 -18 16
-18 60 0 30 4 54 9 54 11 0 61 47 61 58 0 5 7 15 15 22 8 7 15 23 15 36 0 12
3 25 8 27 4 3 7 40 7 82 0 72 -2 79 -26 97 -30 23 -97 40 -105 27 -3 -5 10 -9
28 -9 34 0 98 -32 98 -50 0 -5 -9 -1 -20 10 -23 23 -61 34 -95 28 -32 -7 -32
9 0 42 26 28 26 60 -1 60 -8 0 -14 4 -14 9 0 17 -40 23 -57 9 -15 -11 -16 -10
-10 10 4 18 2 22 -8 18 -8 -3 -17 -1 -20 4 -3 4 -13 7 -23 5 -9 -1 -25 2 -34
6 -13 7 -21 2 -35 -21 l-18 -31 -7 28 c-9 33 -9 33 35 35 20 1 34 5 31 10 -7
11 -77 -1 -85 -15 -4 -5 -14 4 -23 20 -17 34 -54 50 -63 27 -4 -12 -8 -12 -20
-2 -12 10 -18 9 -28 -5 -7 -9 -20 -17 -30 -17 -9 0 -19 -9 -22 -21 -4 -16 -8
-17 -14 -7 -5 7 -9 22 -9 34 0 20 -38 64 -54 64 -5 0 1 -8 13 -17 13 -12 23
-34 26 -63 l5 -45 -22 26 c-23 27 -78 66 -78 56 0 -3 20 -29 45 -58 45 -53 45
-53 23 -65 -13 -7 -26 -23 -29 -36 -5 -17 -7 -13 -8 18 -1 27 -13 59 -37 100
-36 61 -84 117 -84 98z m305 -74 c4 -6 13 -5 26 3 17 10 23 9 40 -12 10 -13
19 -28 19 -35 0 -6 -8 -1 -18 11 -12 16 -21 20 -32 13 -8 -5 -24 -7 -36 -4
-16 4 -23 0 -27 -15 -3 -12 -12 -21 -21 -21 -9 0 -16 -8 -16 -20 0 -11 -5 -20
-11 -20 -17 0 -41 -29 -34 -41 4 -5 0 -18 -8 -27 -16 -17 -17 -20 -17 -49 -1
-17 -1 -17 -11 0 -8 14 -8 22 0 30 6 6 11 24 11 39 0 15 5 28 10 28 6 0 10 9
10 20 0 10 9 24 20 30 11 6 20 17 20 26 0 8 11 19 25 24 14 5 25 14 25 20 0
13 17 13 25 0z m109 -65 c-4 -8 -12 -15 -19 -15 -15 0 -25 -22 -25 -58 0 -20
-3 -23 -12 -14 -15 15 17 89 41 95 9 3 17 5 18 6 1 0 0 -6 -3 -14z m118 -37
c-17 -17 -15 -38 3 -38 8 0 15 -7 15 -16 0 -10 6 -14 15 -10 11 4 15 -2 15
-20 0 -21 4 -24 20 -19 24 8 26 -2 3 -27 -15 -17 -15 -18 3 -18 10 0 30 -6 44
-13 21 -11 24 -19 25 -71 0 -40 -4 -60 -13 -63 -7 -3 -11 -11 -8 -18 3 -8 -2
-16 -10 -19 -9 -3 -12 -10 -9 -16 3 -5 -3 -10 -14 -10 -11 0 -23 -5 -26 -10
-4 -6 -14 -10 -23 -8 -10 1 -23 -1 -30 -6 -8 -5 -20 -2 -30 7 -9 8 -27 18 -39
21 -22 7 -28 -3 -25 -35 1 -3 -6 -6 -14 -6 -7 0 -14 4 -14 9 0 4 4 8 10 8 6 0
6 9 0 26 -17 44 -12 59 11 33 19 -23 20 -23 10 -2 -16 33 -12 42 5 11 9 -17
20 -25 29 -22 9 4 15 0 15 -10 0 -15 13 -21 35 -16 6 1 21 3 35 5 13 1 26 8
28 14 2 6 9 8 14 5 8 -5 9 3 5 24 -5 26 -4 30 10 25 12 -5 15 -2 10 10 -4 11
-1 17 8 17 12 0 12 4 0 27 -12 23 -12 28 2 38 15 11 15 13 -3 22 -45 24 -69
23 -97 -2 -14 -14 -31 -25 -37 -25 -6 0 5 14 25 31 35 31 46 59 22 59 -7 0
-18 -5 -24 -11 -9 -9 -11 -7 -7 8 3 11 -2 37 -10 58 -15 35 -15 39 1 51 22 17
31 18 15 2z m-42 -39 c0 -8 -6 -6 -18 4 -10 10 -23 14 -27 10 -5 -5 -3 0 4 9
11 15 15 15 27 3 8 -7 14 -19 14 -26z m-180 -3 c0 -2 -7 -6 -15 -10 -8 -3 -15
-1 -15 4 0 6 7 10 15 10 8 0 15 -2 15 -4z m136 -19 c11 4 14 -5 13 -43 -1 -27
-3 -42 -6 -33 -5 19 -35 30 -53 19 -9 -6 -8 -15 4 -38 25 -48 19 -55 -21 -25
-29 22 -35 24 -30 10 4 -10 7 -24 7 -31 0 -7 12 -19 26 -26 36 -20 49 -47 31
-65 -29 -28 -137 -32 -137 -3 0 7 16 9 48 6 85 -10 92 6 30 65 -24 22 -38 42
-32 44 7 2 10 13 7 23 -4 14 0 20 11 20 15 0 21 19 18 60 0 12 2 12 12 -2 8
-11 17 -14 26 -8 8 5 18 6 23 3 5 -3 6 5 3 18 -3 13 -3 19 0 12 3 -7 12 -9 20
-6z m-168 -52 c-28 -24 -31 -71 -6 -86 10 -7 10 -9 1 -9 -24 0 -13 -20 20 -34
26 -12 28 -15 10 -15 -12 -1 -23 -7 -26 -13 -3 -8 -7 -6 -12 7 -5 11 -14 27
-22 36 -9 11 -12 33 -10 61 4 50 13 68 42 84 31 18 33 -6 3 -31z m-86 -68 c-1
-9 6 -22 18 -29 27 -17 26 -31 -2 -22 -28 8 -38 22 -38 52 0 15 5 22 13 19 6
-2 11 -11 9 -20z m573 -7 c-3 -5 -11 -10 -16 -10 -6 0 -7 5 -4 10 3 6 11 10
16 10 6 0 7 -4 4 -10z m-198 -53 c-6 -20 -27 -19 -27 2 0 14 5 19 15 14 9 -3
14 -10 12 -16z m197 8 c-7 -17 -20 -20 -28 -6 -7 10 3 21 20 21 8 0 11 -6 8
-15z m-532 -15 c22 -1 22 -1 3 -12 -11 -6 -21 -12 -23 -13 -7 -6 12 -35 23
-35 7 0 19 -7 26 -16 10 -12 25 -15 61 -12 37 4 46 2 38 -7 -29 -35 -170 19
-170 66 0 14 -5 19 -17 17 -23 -4 -30 -46 -9 -54 9 -3 16 -11 16 -18 0 -32 51
-117 77 -128 15 -7 34 -21 41 -30 11 -15 18 -16 35 -7 21 10 21 10 3 -5 -25
-20 -32 -20 -40 -1 -3 8 -17 15 -31 15 -14 0 -25 6 -25 13 0 7 -12 26 -27 43
-16 17 -34 43 -42 60 -7 16 -20 41 -27 56 -19 35 -18 44 7 67 16 15 26 18 40
11 10 -6 28 -10 41 -10z m307 -37 c10 -21 8 -23 -17 -22 -15 0 -21 3 -14 6 20
8 14 30 -15 53 l-28 21 32 -17 c17 -9 36 -28 42 -41z m-962 20 c16 -41 -45
-210 -89 -250 -19 -17 -20 -17 -13 22 9 53 43 183 56 218 13 30 36 36 46 10z
m180 0 c16 -41 -45 -210 -89 -250 -19 -17 -20 -17 -13 22 9 53 43 183 56 218
13 30 36 36 46 10z m988 -62 c-3 -6 -14 -11 -23 -11 -13 0 -13 2 4 14 21 15
30 14 19 -3z m-208 -7 c-3 -3 -12 -4 -19 -1 -8 3 -5 6 6 6 11 1 17 -2 13 -5z
m183 -29 c0 -16 -51 -53 -77 -57 -42 -6 -42 -2 2 16 19 8 35 21 35 28 0 8 9
14 20 15 11 1 20 0 20 -2z m-395 -25 c-10 -11 -21 -20 -25 -20 -4 0 -10 9 -13
20 -4 17 0 20 25 20 30 0 31 0 13 -20z m241 -25 c9 -23 -5 -65 -21 -65 -8 0
-15 5 -15 10 0 6 5 10 11 10 6 0 9 7 5 15 -3 8 0 15 6 15 7 0 6 5 -2 15 -9 11
-9 15 -1 15 6 0 14 -7 17 -15z m-236 -16 c0 -15 26 -39 34 -32 3 4 6 0 6 -7 0
-10 5 -9 19 4 18 16 18 16 14 -9 -3 -14 -7 -25 -9 -25 -3 0 -22 12 -43 26 -43
28 -60 54 -36 54 8 0 15 -5 15 -11z m320 -51 c0 -51 -5 -47 -13 10 -3 24 -1
40 4 36 5 -3 9 -24 9 -46z m-201 10 c1 7 5 11 10 8 5 -4 12 0 14 6 3 8 6 6 6
-4 1 -10 9 -18 19 -19 30 -1 -19 -18 -55 -18 -37 -1 -37 -1 -21 35 l13 27 6
-24 c4 -13 7 -18 8 -11z m-234 -10 l16 -33 -20 25 c-20 24 -26 40 -16 40 2 0
12 -15 20 -32z m235 -75 c0 -20 -28 -16 -40 6 -15 29 -13 32 15 19 14 -6 25
-17 25 -25z m-1337 -14 c7 -24 -14 -100 -28 -102 -17 -3 -30 70 -17 98 14 30
38 33 45 4z m777 14 c-1 -5 -18 -42 -38 -83 -51 -103 -98 -130 -66 -38 20 61
106 160 104 121z m525 -24 c0 -17 -61 -22 -88 -7 -28 14 -6 26 46 23 28 -1 42
-6 42 -16z m151 12 c-3 -5 -15 -11 -26 -14 -17 -4 -19 -3 -9 9 12 15 44 20 35
5z m143 -15 c15 -16 20 -29 14 -38 -6 -11 -16 -5 -42 24 -29 33 -31 38 -14 38
11 0 30 -11 42 -24z m-20 -78 c-11 -5 -34 -17 -49 -28 -39 -28 -43 -25 -20 13
11 17 20 48 20 67 l1 35 35 -40 c34 -38 34 -39 13 -47z m-165 2 c-36 -68 -64
-90 -64 -50 0 28 36 97 57 109 42 24 43 10 7 -59z m-199 51 c3 -5 25 -8 50 -7
50 4 51 6 -8 -72 -39 -51 -73 -79 -84 -69 -7 8 19 157 28 157 4 0 10 -4 14 -9z
m340 -111 c-21 -23 -50 -34 -65 -25 -6 4 8 17 32 29 50 25 58 24 33 -4z"/>
<path d="M3358 3733 c6 -2 18 -2 25 0 6 3 1 5 -13 5 -14 0 -19 -2 -12 -5z"/>
<path d="M1613 3682 c-9 -5 -14 -60 -17 -177 -4 -172 -17 -273 -37 -286 -6 -3
23 -6 65 -5 66 1 80 13 18 15 -18 1 -22 5 -17 20 13 43 35 242 35 327 0 100
-12 128 -47 106z"/>
<path d="M3841 3637 c20 -7 42 -17 50 -23 8 -6 29 -18 48 -27 27 -14 31 -14
21 -2 -7 8 -18 15 -25 15 -7 0 -23 8 -36 19 -13 10 -40 21 -59 24 l-35 6 36
-12z"/>
<path d="M1740 3463 c-12 -9 -29 -31 -36 -50 -12 -28 -12 -38 -2 -60 17 -35
32 -39 58 -13 19 19 21 19 27 3 4 -10 11 -21 17 -26 7 -5 5 -11 -6 -17 -67
-40 -107 -105 -94 -155 3 -13 40 -63 81 -110 88 -104 98 -138 70 -242 -23 -85
-63 -133 -111 -133 -90 0 -114 125 -37 197 19 18 41 33 49 33 8 0 14 5 14 11
0 5 -17 0 -39 -12 -73 -41 -105 -147 -61 -208 l19 -28 -34 -33 c-34 -33 -34
-33 -106 -26 -66 6 -129 33 -129 55 0 4 39 38 86 75 l87 68 -27 18 c-33 21
-98 92 -131 142 -13 20 -29 39 -34 42 -6 4 -7 14 -4 24 5 14 3 15 -8 5 -18
-17 -29 -16 -29 3 0 13 -2 13 -14 2 -8 -8 -15 -23 -18 -33 -2 -13 -28 -30 -78
-52 -83 -35 -103 -40 -74 -18 25 19 11 19 -26 0 -17 -9 -30 -13 -30 -10 0 3
11 28 25 55 14 28 23 50 20 50 -4 0 -31 -14 -61 -30 l-54 -31 0 89 c0 143 -12
274 -23 263 -7 -7 -6 -68 3 -188 10 -133 10 -178 2 -181 -7 -2 -12 -13 -11
-25 l0 -22 9 21 c4 12 17 24 29 27 19 4 19 3 6 -17 -11 -17 -12 -30 -5 -56 15
-53 10 -59 -11 -15 -10 22 -19 32 -19 22 0 -23 29 -79 38 -73 4 2 7 -26 8 -63
1 -46 9 -85 27 -130 17 -43 23 -69 17 -76 -6 -7 -17 -49 -26 -95 -16 -86 -64
-197 -89 -206 -24 -9 -55 -69 -55 -104 0 -25 10 -43 46 -79 l47 -46 -34 -65
c-19 -36 -33 -68 -31 -73 1 -4 -3 -27 -9 -52 -10 -39 -9 -48 11 -80 12 -20 30
-35 40 -35 11 0 35 -14 55 -31 32 -29 40 -31 102 -29 91 3 88 4 102 -26 9 -21
16 -25 36 -20 17 4 25 2 25 -6 0 -9 3 -8 10 2 16 24 12 30 -17 24 -23 -4 -31
0 -45 25 -17 30 -16 31 3 31 11 0 23 -8 27 -17 9 -22 32 -28 32 -9 0 7 -11 47
-25 87 -14 41 -27 80 -28 87 -1 8 18 22 43 32 l45 18 0 -97 c0 -74 3 -95 13
-93 8 1 11 -2 7 -8 -3 -5 -1 -28 5 -51 9 -33 8 -45 -5 -65 -20 -31 -70 -35
-60 -4 12 39 -6 19 -30 -32 l-25 -53 26 -3 c36 -5 71 22 96 73 12 25 25 45 29
45 5 0 9 -19 11 -42 4 -55 28 -64 28 -10 l0 39 78 6 c113 9 182 30 205 61 24
33 75 60 151 79 65 18 96 40 96 71 0 13 20 41 50 69 46 43 55 60 51 93 -1 6
12 17 28 24 38 15 43 29 42 120 -1 71 1 77 34 119 42 52 45 89 12 146 -21 37
-22 43 -10 85 22 75 -11 176 -67 208 -16 9 -35 29 -41 44 -11 28 -75 92 -122
123 -24 15 -26 22 -25 79 2 101 -17 129 -151 225 -68 49 -83 79 -60 120 16 29
110 81 146 81 43 0 83 -29 103 -73 22 -49 27 -33 5 19 -15 35 -61 64 -105 64
-20 0 -20 1 5 48 14 26 20 38 13 28 -36 -53 -77 -91 -88 -80 -10 10 1 54 35
136 6 14 -1 17 -48 17 -33 0 -63 -7 -77 -16z m55 -40 c-21 -50 -43 -83 -55
-83 -14 0 -12 16 6 53 35 68 75 93 49 30z m-381 -476 c9 -24 32 -63 52 -85
l36 -42 -26 -1 c-14 -1 -30 -2 -34 -3 -19 -2 -110 91 -116 119 -4 16 -4 27 0
23 4 -5 13 1 21 12 24 34 48 25 67 -23z m-12 -126 l27 -23 -25 -39 c-39 -62
-28 -68 21 -13 26 30 56 54 71 57 31 6 84 -17 60 -26 -34 -13 -156 -109 -150
-119 4 -5 -2 -8 -13 -6 -11 2 -32 -3 -47 -11 -24 -13 -28 -13 -46 7 -28 30
-25 35 11 17 45 -24 47 -11 7 31 -62 64 -64 73 -28 138 l33 57 26 -23 c14 -12
38 -33 53 -47z m-278 -151 l6 -55 -15 50 c-17 58 -19 83 -6 70 5 -6 12 -35 15
-65z m125 1 c-13 -11 -26 -17 -29 -14 -6 6 30 33 43 33 5 0 -1 -9 -14 -19z
m542 -32 c-26 -21 -52 -22 -58 -2 -3 7 9 13 29 16 18 2 38 4 43 5 6 1 -1 -8
-14 -19z m-576 -18 c3 -5 1 -12 -5 -16 -5 -3 -10 1 -10 9 0 18 6 21 15 7z
m-55 -63 c0 -5 -4 -8 -8 -8 -5 0 -9 6 -9 13 0 6 -4 21 -7 32 -5 13 -2 12 8 -5
8 -14 15 -28 16 -32z m1065 -229 c9 -17 15 -39 13 -49 -2 -12 -10 -1 -25 31
-24 53 -14 68 12 18z m-1172 -82 c-28 -45 -58 -84 -67 -85 -16 -4 -16 -2 -1
27 8 17 20 30 27 28 6 -1 27 28 47 65 20 37 38 62 39 57 2 -5 -18 -46 -45 -92z
m1156 23 c0 -10 -3 -8 -9 5 -12 27 -12 43 0 25 5 -8 9 -22 9 -30z m-133 -259
c-15 -15 -16 -13 -4 19 9 26 13 30 16 16 2 -10 -3 -26 -12 -35z m86 -3 c-6 -6
-7 0 -4 19 5 21 7 23 10 9 2 -10 0 -22 -6 -28z m-68 -83 c-4 -8 -8 -15 -10
-15 -2 0 -4 7 -4 15 0 8 4 15 10 15 5 0 7 -7 4 -15z m-193 -158 c-13 -13 -15
11 -4 40 7 16 8 15 11 -6 2 -13 -1 -28 -7 -34z m99 30 c0 -7 -7 -22 -15 -33
-13 -17 -14 -16 -4 14 11 33 19 41 19 19z m-284 -159 c4 -6 3 -8 -4 -4 -6 3
-13 2 -17 -4 -3 -5 -15 -10 -26 -10 -11 0 -18 4 -14 10 3 5 12 7 20 3 8 -3 15
0 15 6 0 14 17 14 26 -1z"/>
<path d="M1254 3433 c2 -10 7 -27 10 -39 4 -12 18 -26 31 -32 21 -10 25 -9 25
5 0 14 4 13 23 -5 32 -30 38 -28 21 8 -9 17 -20 30 -25 30 -6 0 -8 10 -4 23 6
20 5 21 -8 5 -19 -23 -34 -23 -49 2 -16 25 -31 26 -24 3z"/>
<path d="M3406 3362 c-2 -4 -1 -14 4 -22 7 -11 9 -9 7 8 -1 24 -3 26 -11 14z"/>
<path d="M1273 3343 c6 -27 -12 -29 -93 -12 -50 11 -120 5 -120 -9 0 -4 19 -7
43 -8 23 -1 74 -4 114 -7 40 -4 74 -3 77 1 2 4 -2 18 -11 32 -13 24 -14 24
-10 3z"/>
<path d="M1332 3307 c-26 -28 -158 -62 -204 -53 -24 5 -28 3 -24 -12 2 -9 7
-51 11 -92 3 -42 11 -83 16 -90 10 -14 7 33 -7 131 -5 35 -4 37 28 42 98 14
189 52 202 85 8 18 2 15 -22 -11z"/>
<path d="M1335 3239 c-152 -12 -195 -31 -195 -86 0 -16 8 -27 26 -33 l26 -10
-21 -35 c-24 -42 -17 -45 21 -8 l28 27 1 -30 c0 -25 2 -26 9 -9 8 18 9 18 9
-5 1 -38 28 -70 59 -70 24 0 25 1 11 16 -22 21 -13 62 15 67 19 3 19 4 -6 15
-39 16 -35 24 9 20 l37 -3 9 50 c4 28 12 54 18 60 9 9 12 2 13 -45 1 -20 6
-25 24 -22 32 3 23 -20 -8 -25 -14 -2 -29 -9 -35 -15 -7 -7 -2 -9 18 -4 24 6
28 4 25 -11 -2 -11 -16 -20 -33 -24 l-30 -6 28 -11 c35 -15 50 -15 82 0 30 14
31 25 4 54 -20 21 -20 23 -4 54 20 39 17 76 -7 72 -20 -3 -24 14 -5 21 15 7
-13 6 -128 -4z m-24 -28 c-8 -5 -20 -7 -28 -4 -21 8 -15 13 15 13 20 0 23 -3
13 -9z m-84 -19 c-10 -10 -18 -27 -18 -38 -1 -18 -2 -18 -6 -1 -4 16 21 57 35
57 3 0 -2 -8 -11 -18z"/>
<path d="M2558 3085 c-6 -14 -8 -28 -4 -32 11 -12 41 12 44 36 5 30 -26 27
-40 -4z"/>
<path d="M2059 3042 c-62 -55 -70 -181 -14 -229 30 -26 43 -28 79 -12 26 12
83 85 74 95 -3 3 -16 -11 -28 -31 -23 -37 -47 -55 -74 -55 -30 0 -17 135 14
145 21 7 40 47 40 85 0 27 -3 30 -30 30 -18 0 -41 -11 -61 -28z m71 -42 c-7
-16 -18 -31 -26 -34 -8 -3 -14 -4 -14 -2 0 11 25 73 34 85 17 21 21 -13 6 -49z"/>
</g>
</svg>
